<svg xmlns="http://www.w3.org/2000/svg" width="79.624" height="148.272" viewBox="0 0 79.624 148.272">
  <g id="Group_226" data-name="Group 226" transform="translate(-170.276 -28.388)">
    <g id="Group_4" data-name="Group 4">
      <path id="Path_6" data-name="Path 6" d="M246.362,167.535c4.7-2.71,4.72-7.1.056-9.811l-43.384-26.16c-4.666-2.71-12.243-2.71-16.937,0l-12.284,7.091c-4.7,2.711-4.719,7.1-.054,9.811l43.384,26.161c4.666,2.711,12.244,2.71,16.939,0Z" fill="#f5f0ef"/>
    </g>
    <g id="Group_206" data-name="Group 206">
      <path id="Path_215" data-name="Path 215" d="M215.238,38.747s-.869,15.21,1.983,17.236c0,0-15.1-1.1-18.567-9.124C198.654,46.859,202.209,35.987,215.238,38.747Z" fill="#704c4e"/>
      <g id="Group_205" data-name="Group 205">
        <path id="Path_216" data-name="Path 216" d="M219.49,143.474l.142,1.908a15.743,15.743,0,0,1,.514,4.768,3.684,3.684,0,0,0,2.564,3.7,1.734,1.734,0,0,0,2.324-1.906c0-2.027.979-5.992,1.312-7.988.257-1.552.636-5.563-2.862-5.6C220.385,138.311,219.49,143.474,219.49,143.474Z" fill="#fff"/>
        <path id="Path_217" data-name="Path 217" d="M218.848,143.474l.141,1.908a15.727,15.727,0,0,1,.515,4.768,3.683,3.683,0,0,0,2.563,3.7,1.735,1.735,0,0,0,2.326-1.906c0-2.027.977-5.992,1.31-7.988.26-1.552.637-5.563-2.861-5.6C219.742,138.311,218.848,143.474,218.848,143.474Z" fill="#779ec6"/>
        <path id="Path_218" data-name="Path 218" d="M200.318,50.3s-5.24-1.988-7.4,2.11-8.3,13.235-8.3,13.235-5.163-3.294-7.563,0c-.967,1.327,0,3.812,3.782,5.372s5.988-2.221,5.988-2.221,9.139-7.089,10.872-11.344S200.318,50.3,200.318,50.3Z" fill="#eac2ac"/>
        <path id="Path_219" data-name="Path 219" d="M208.189,134.658l.141,1.908a15.743,15.743,0,0,1,.516,4.767,3.686,3.686,0,0,0,2.562,3.7,1.735,1.735,0,0,0,2.324-1.908c0-2.027.979-5.993,1.313-7.988.258-1.552.637-5.563-2.862-5.6C209.084,129.5,208.189,134.658,208.189,134.658Z" fill="#fff"/>
        <path id="Path_220" data-name="Path 220" d="M207.547,134.658l.14,1.908a15.707,15.707,0,0,1,.516,4.767,3.686,3.686,0,0,0,2.563,3.7,1.735,1.735,0,0,0,2.324-1.908c0-2.027.978-5.993,1.312-7.988.258-1.552.637-5.563-2.862-5.6C208.441,129.5,207.547,134.658,207.547,134.658Z" fill="#779ec6"/>
        <path id="Path_221" data-name="Path 221" d="M208.949,131.355c-1.935-4.926-4.222-11.612-10.381-12.316,0,0,9.125-17.668,8.973-26.04l-13.2-2.022-1.675,5.679s-4.223,22.559-2.33,25.55,11.044,7.039,17.2,13.9C207.541,136.106,210.885,136.282,208.949,131.355Z" fill="#eac2ac"/>
        <path id="Path_222" data-name="Path 222" d="M220.4,140.631c-1.935-4.925-4.222-11.612-10.38-12.316,0,0,6.486-17.667,6.334-26.038L202.1,99.99l-.622,5.678s-1.583,22.823.311,25.815,11.042,7.038,17.2,13.9C218.989,145.382,222.332,145.558,220.4,140.631Z" fill="#f9dac6"/>
        <path id="Path_223" data-name="Path 223" d="M192.454,96.793s-2.478,6.985,9.024,6.04v2.835s6.3,8.352,15.127-.63c0,0,3.94-5.987-2.521-14.5,0,0-6.775,4.569-13.708-1.733,0,0-5.357-1.734-4.728-4.886C195.648,83.923,191.981,91.121,192.454,96.793Z" fill="#f5f0ef"/>
        <path id="Path_224" data-name="Path 224" d="M201.321,49.417s-12.6,10.084-6.932,20.64c0,0,2.467,11.776.586,14.781,0,0,5.715,12.638,19.109,5.7,0,0-1.891-14.94,2.207-19.524,0,0,4.412-11.517-5.988-18.135Z" fill="#779ec6"/>
        <path id="Path_225" data-name="Path 225" d="M213.612,61.708s2.993-2.523,6.46,3.308,14.5,17.332,23.635,38.131c0,0,8.195.474,5.043,5.043s-8.035-.945-8.035-.945S223.066,76.518,215.187,69.9C215.187,69.9,207.781,66.434,213.612,61.708Z" fill="#f9dac6"/>
      </g>
      <path id="Path_226" data-name="Path 226" d="M211.461,46.332c-1.939,4.073-.738,6.375-1.17,7.342-.828,1.85-5.871,3.42-7.59,2.86-1.064-.348-1.045-2.873-1.045-2.873S212.777,43.568,211.461,46.332Z" fill="#eac2ac"/>
      <path id="Path_227" data-name="Path 227" d="M214.366,37.128v-.011h0c-.055-1.542-.118-4.7-3.247-6.772-3.955-2.629-8.81-1.718-13.315,1.87-2.824,2.256-3.39,6.141-3.326,7.715.08,3.3-.083,1.559.054,3.592.588,8.7,6.465,12.808,11.9,9.025a19.342,19.342,0,0,0,4.67-4.305c2.207-3.009,3.254-5.56,3.25-10.732A2.577,2.577,0,0,0,214.366,37.128Z" fill="#f9dac6"/>
      <path id="Path_228" data-name="Path 228" d="M247.75,108.548c-.258-.149-.47.085-.471.522l-.14,26.414c-.061,21.652-15.442,30.417-34.286,19.538s-34.123-37.346-34.061-59l.139-26.016a7.2,7.2,0,0,1-.934-.75l-.141,26.227c-.062,22.243,15.636,49.437,35,60.613s35.16,2.172,35.224-20.073l.141-26.415A1.326,1.326,0,0,0,247.75,108.548Z" fill="red"/>
      <path id="Path_229" data-name="Path 229" d="M207.806,28.514c-4.651-.528-7.017.67-9.087,2.436h0s-5.011,1.574-4.975,9c0,0,2.352,3.08,9.76,3.16,0,0,1.451-2.923,3.055-3.526.251,0,.531-.021.639.146,1.034,1.582-.009,6.747-1.43,9.823l1.378.264s.176-4.656,1.215-6.787c.467-.7,1.108-1.28,1.884-1.043,1.7.52-.35,3.48-.057,4.592.111.421.341,4,.341,4C216.393,47.366,218.137,29.688,207.806,28.514Z" fill="#704c4e"/>
    </g>
  </g>
</svg>
